# xmcd
#
# Track frame offsets:
#	150
#	12890
#	25040
#	36612
#	50242
#	63514
#	75735
#	86645
#	98529
#	110867
#	122970
#	134350
#	143627
#	156267
#	176350
#	188535
#	203775
#	218655
#
# Disc length: 3086 seconds
#
# Revision: 6
# Processed by: cddbd v1.5.2PL0 Copyright (c) Steve Scherf et al.
# Submitted via: audiograbber 1.83.01
#
DISCID=fb0c0c12
DTITLE=Various Artist - Rhythm Revue  [CD1)
DYEAR=1996
DGENRE=Oldies
TTITLE0=Archie Bell and The Drells - Tighten Up - Part 1
TTITLE1=Archie Bell and The Drells - Tighten Up - Part 2
TTITLE2=Wilson Pickett - In The Midnight Hour
TTITLE3=Five Stairsteps - World Of Fantasy
TTITLE4=Eddie Holman - This Can't Be True
TTITLE5=Platters - I Love You 1000 Times
TTITLE6=Aretha Franklin - Respect
TTITLE7=Van Dykes - No Man Is An Island
TTITLE8=Brenda and The Tabulations - Dry Your Eyes
TTITLE9=Fantastic Johnny C - Boogaloo Down Broadway
TTITLE10=Impressions - Never Let Me Go
TTITLE11=Jan Bradley - Mama Didn't Lie
TTITLE12=Little Anthony and The Imperials - If I Remember To Forget
TTITLE13=David Ruffin - Statue Of A Fool
TTITLE14=Artistics - I'm Gonna Miss You
TTITLE15=Jesters - The Wind
TTITLE16=Freddie Scott - Are You Lonely For Me Baby 
TTITLE17=Spaniels - You Gave Me Peace Of Mind
EXTD=
EXTT0=
EXTT1=
EXTT2=
EXTT3=
EXTT4=
EXTT5=
EXTT6=
EXTT7=
EXTT8=
EXTT9=
EXTT10=
EXTT11=
EXTT12=
EXTT13=
EXTT14=
EXTT15=
EXTT16=
EXTT17=
PLAYORDER=
